<svg xmlns="http://www.w3.org/2000/svg" viewBox="0 0 240 160"><path fill="#000" fill-rule="evenodd" d="M207.4 38.6L210.6 38.3L210.7 38.4L211.4 38.6L211.9 40.1L212 40.2L212.9 41.2L213.6 42.6L214.6 43.6L217 44L220.2 45.2L222.3 47.6L225.3 48.6L225.6 48.6L226.2 48.5L228.4 48.4L228.9 48.9L230.7 50L231.4 51.1L231 52.1L231.3 53.4L232 53.8L231.2 54.6L225.5 58.6L223.2 59.7L221.7 60L219.3 59.6L216.9 59.8L214.6 60.8L212.6 61L211.2 62.1L209.2 64.3L206.8 66.2L204.3 67.4L203 68.4L202.9 72L201.6 73L199.8 74.1L198.7 75L196 80.5L193.8 82.3L191.9 83.6L191.6 84.8L191.6 86.3L189.3 89.1L186.3 92L185.7 93.2L186.5 94.8L183.6 96.7L181.9 97.6L180.6 98L179.8 99.2L178.4 102L178.7 103.3L178.7 104.5L176.4 105.1L175.6 106.5L175 108L174.1 108.8L171.4 110.1L164.7 109.5L162.1 110L161.4 110.9L161.3 111.7L160.4 112.4L158.9 113.3L157.2 113.7L153.8 112.6L146.3 113.7L145 114.5L143.9 113.9L142.4 113.4L134.9 112.8L131.9 113.3L127.8 113.1L124.3 112.5L121.5 112.9L119 115.2L117.9 116L116.9 116.4L114.9 117.1L113.1 118L110.8 118.6L108.8 118.5L106.8 117.5L106.2 117.8L105.5 118.7L104.5 119.4L101.6 120.3L100.9 120.3L100.7 120.3L98.5 121L94.8 121.4L92.9 121.1L89.6 124.2L88.6 124.8L85.4 125.8L82.8 126.2L80.5 125.8L79.7 125.8L69.7 125.7L64.6 125L61.3 123.8L59 122.5L57.9 120.9L55.4 120L51.4 119.7L48.2 118.2L45.9 115.6L42.8 113.5L39 111.9L35.9 109.7L33.7 106.9L29.6 104.3L23.7 102L21.9 101.6L21.6 100.8L18.7 98L17.5 97L17.6 95.6L17 94.8L16 94.2L15.4 92.2L15.1 90.8L14.3 89.8L8 89.5L13.2 86L15.8 85L18.9 85.1L19.9 84.8L20.1 84.3L20.6 83.1L21 82L21.2 81L20.8 80.4L19.4 80.3L18.7 77.7L19.4 76.7L20.1 76L19.3 72.9L19.5 71.9L21.9 71.7L23.8 71L25.5 70.3L26 69.3L27.3 67.4L26.1 64.9L19.2 63.4L18.8 62.8L20.4 62.1L22.1 61.1L23.1 60.4L24.4 60.2L26.3 60.6L29.6 62.4L30.8 62.7L32.1 62.1L33.4 62L37 62.1L40.1 61.7L39.4 59.8L39.4 58.5L38.9 57.4L39.3 56.2L40.5 55.3L40.8 53.3L42.8 51.8L43.7 51.6L47.1 51.9L47.8 52.2L48.4 52.3L53.8 55.7L58.9 58.3L63 59.6L69.2 59.7L75.8 59.8L86.7 59.4L94.9 59L95.4 58.4L96.7 56.9L95.6 55.5L95.7 54.1L97.1 52L101.1 50.3L112.7 49.6L119.4 48.4L120.4 46.7L122.6 45L124.6 44.7L127.4 45.5L130.7 46.9L133.7 47.7L135.3 47.2L141.3 44.7L148.1 42.2L152.7 35.7L153.2 34.6L158.3 33.9L165.7 34L169.5 34.8L172.2 35.3L176.5 35.2L182.7 33.8L184.9 33.8L186.7 34.8L188.6 35.7L189.9 36.7L190.9 38.2L191.5 38.7L192.3 39.6L193.8 40.6L195.4 40.9L206.7 39L207.4 38.6Z"/></svg>