<svg xmlns="http://www.w3.org/2000/svg" viewBox="0 0 240 160"><path fill="#000" fill-rule="evenodd" d="M161.7 99.1L160.8 99.3L160.5 99.2L160.6 97.3L162.7 94.9L164.1 92.2L165.2 94.6L163.4 96L162.5 98.3L161.7 99.1ZM78.1 152L77.3 150L76.3 148.1L75.4 146.1L74.5 144.2L73.9 142.8L72.8 142.3L72.2 140.9L71.5 139.4L70.9 137.9L70.2 136.4L69.6 135L68.9 133.5L68.3 132L67.6 130.5L66.9 129L66.3 127.6L65.6 126.1L65 124.6L64.3 123.1L63.6 121.6L63 120.1L62.4 118.7L61.7 117.2L63.8 116.5L66.4 115.6L68.9 114.8L71.4 113.9L74 113.1L76.6 112.2L79.1 111.4L81.6 110.5L84.2 109.7L86.8 108.8L89.3 108L91.8 107.1L94.4 106.3L97 105.4L99.5 104.6L102.1 103.7L104.6 102.9L106.2 102.4L106.8 100.4L107.4 98.7L107.9 97.1L108.5 95.5L109 93.8L109.6 92.2L110.1 90.5L110.6 88.9L111.2 87.2L111.7 85.6L112.3 84L112.8 82.3L113.4 80.7L113.9 79L114.5 77.4L115 75.8L115.5 74.1L116 72.6L115.1 71.1L113.8 69.2L112.5 67.2L111.3 65.2L110.4 63.9L109.3 62.2L109.4 60L109.4 58.9L109.5 57.3L110.5 55L111.7 52L112.7 50.1L113.5 48.4L114 47L114.4 45.6L114.2 44.6L113.8 44.3L113.5 43.8L114.6 43.1L116.9 42.6L118.1 42.7L119.8 42.4L121.1 42L121.3 41.6L120.9 40.8L120.3 39.8L118.4 39.6L117.8 39.4L118.5 37.8L118.4 37.3L118.2 36.7L117.9 35.7L118.1 34.4L118.4 33.5L118.5 32.8L118.3 31.4L118.3 30.1L118.7 29.5L119.4 28.8L120.1 28.5L120.8 28.6L121.4 28.8L121.6 29.5L121.5 30L121 30L120.9 30.2L121.5 31.1L122.3 32L122.9 31.8L123.7 31.2L124.4 30.6L125.3 30.1L126 29.1L126.6 28.5L127.1 28.4L128.6 32.3L130.9 36L132.8 38L134.9 40.7L138 43.3L139.5 44.1L145.2 45.9L148.4 46.5L152.8 47.2L155.9 48.5L156.9 48.6L158.4 48.2L159.6 48.2L162.5 50.1L163.3 51.9L164.6 52.8L165.6 54.3L166.3 55.8L168.7 58.2L170.5 60.9L172.3 62.8L173.8 64L176.2 64.5L178.1 65.1L178.3 66.4L178.1 68.1L177.7 69.4L175.9 71.8L175.5 73.4L173.5 75.9L171.3 80.1L170.4 81L166.9 83.2L164.3 85.8L161.3 90.3L159 94.8L158 96.2L156.2 96.6L155 96.4L154.2 96L154.5 94.8L154.7 93.4L153.6 93.5L152.5 93.8L150.3 97.2L149 98.7L148.7 100.5L148.1 103L147.2 105.2L146.8 107.1L146.8 108.1L147.5 110.7L147.5 113.4L147.9 115L148.2 116.9L147.2 117.5L146.2 117.8L142.6 118L138.8 118.6L135.6 119.7L133.6 120.8L131.1 123.2L129.5 129.5L127 132.1L125.4 132.7L121.3 132.9L115.6 133.6L113.6 134.3L110.3 138.1L110 139.3L110.7 140.2L110.9 141.1L110.6 142L109.1 144.5L107.5 146.2L103.2 147.3L101.5 146.7L100.1 146.3L97.3 146.3L92.7 146.7L91 148L88.4 148.9L85.9 150.4L81.3 150.9L78.1 152ZM125.8 18.5L125.5 18.8L125 18.8L124.1 18.6L123.5 17.9L123.6 17.1L123.7 15.5L123.9 14.1L123.8 12.6L123.1 12.3L122.5 12.4L123.8 10.2L124.3 9.9L124.7 10L125.9 9.8L126.5 8.6L127 8L127.5 8.1L127.7 8.4L127.6 10.2L127.6 11.7L126.9 16.2L126.2 17L125.9 17.6L125.8 18.5ZM125.5 24.6L124.9 25L124.5 25L124.6 24.2L124.8 23.6L125.5 23.7L125.6 24L125.5 24.6Z"/></svg>