<svg xmlns="http://www.w3.org/2000/svg" viewBox="0 0 240 160"><path fill="#000" fill-rule="evenodd" d="M121.7 11.5L120.9 14.6L119.4 18.4L118.4 19.6L117.8 28.9L118.2 29.7L118.6 29.9L123.4 33.1L129.5 37.1L134 40.1L134.4 41L134.4 47.1L134.5 52.4L135.4 55.3L135.5 58.3L136.7 60.5L140.8 64.7L141.7 67.2L141.8 75.2L141.9 81.2L142.4 89.5L142.4 96.4L142.4 105.1L142.4 115.3L142.4 126L139.7 126.1L141.2 129.4L141.4 132.4L141.8 133.4L141.1 134.8L141.7 137.1L142.8 137.9L145.8 142.4L146.8 146.1L142 147.4L142.3 148.3L133.5 150.4L129.8 152L129.8 150.4L128.5 150.1L127 149.6L125.9 148.7L124.6 146.8L124.1 145.4L122 145.1L119.4 143.5L117 141.6L116.1 139.7L116.3 138.8L116 137.9L115.1 137.6L112.9 133.3L111.6 131.6L110.9 130.2L111.2 129.1L110.9 127.6L111.3 126.5L112.4 125.8L112.8 125L112.9 123.1L113.7 119.4L114.1 115.8L112.8 114.8L111.3 114.5L110.5 113.4L110.2 111.7L110.2 110.2L113.2 105.1L112.6 93.1L113 91.2L114.4 90L115.6 88.6L115.5 87.1L113.6 83.5L109.7 80.8L107.8 78.6L106.7 76.6L106.5 75.5L108.8 73.9L109.8 72.9L110 71.6L109 69.4L109.2 65.3L110.2 62.3L111 58.4L111 57.2L108.7 54.8L107.5 54.5L106.5 54.7L104.2 56.2L103.3 56.4L102.8 55.9L102.5 55.3L103.3 54.4L103 53.2L103.8 52.3L105.2 51.8L105.7 51.3L103.7 50.8L103.5 50.2L103.6 49.5L104.2 49.4L104.8 49.4L105.1 48.9L105.4 45.6L105.7 44.4L105.9 42.1L106.2 33.2L106.7 32.3L106.7 31.6L105.4 31.2L102.1 28.8L100.2 26.9L98.4 25.1L97 23.8L94.2 21.9L93.4 20.7L93.2 19.5L94.2 17L95.5 14.5L96.1 10.7L95.7 9.7L93.9 8L100.5 9.3L109.7 11.6L109.9 12L109.9 12.6L111.6 12.6L114.3 11.8L121.7 11.5Z"/></svg>