<svg xmlns="http://www.w3.org/2000/svg" viewBox="0 0 240 160"><path fill="#000" fill-rule="evenodd" d="M17.8 82.7L17.6 83.5L16.7 81.2L16.3 78.8L16.8 78.1L17.5 78.1L16.9 79L17.8 82.7ZM63.2 42.8L67.4 43L71.2 43.1L75.8 43.3L77.2 43.5L78.9 43.7L79.7 43.7L80.5 43L80.9 42.7L81.3 42.3L81.2 42L80.6 41.7L79.7 40.8L79.1 37.3L78.9 34.3L79.9 33.4L81.2 32.7L83 30.7L84 30.1L85.5 29.6L90.3 29.4L92.3 29.1L93 28.4L94 26.7L94.4 25.4L95 24.8L95.7 24.3L96.4 24.4L97.9 24.7L98.9 25L99.7 25.3L100.4 25.7L101.1 26.6L101.2 27.1L101.6 27.4L102.1 27.4L102.5 27.4L102.8 27.3L102.9 27L102.8 26.7L101.9 25.6L99.9 23.7L98.5 22.9L97.8 22.5L97.7 22.1L98.5 21.5L99.4 21.1L100.9 21.4L102.8 21.5L103.7 21.2L104.6 19.7L106.8 21.3L109.2 23.1L110 23.5L111.7 23.7L113 23.7L113.7 23.9L114.3 24.4L115.5 26.4L116.7 26.9L118.3 27.3L123.2 27.3L124.7 27.4L125.9 28.3L126.7 28.7L127.1 29L127 29.4L126.7 30L126.6 31L126.6 31.8L126.2 32.1L126 32.5L126.4 32.8L128.7 33.5L129.4 34.3L130 34.7L130.2 35.2L129.8 35.5L128.7 35.3L128.2 35.9L128.2 36.8L128.9 37.7L129.1 38.5L128.6 39.3L128 40.4L128 41.1L128.4 41.6L130.2 42.4L134.1 44.4L135.1 44.5L138.9 44L140.7 44L141.7 44.3L144.7 44.5L145.7 44.9L146.6 44.9L148 44.8L148.9 43.9L149.4 43.7L149.8 43.6L150.7 43.5L153 44.1L155.5 45.3L157.1 46.4L157.9 47.4L158.9 49.6L160.2 52.9L161.7 55.2L163.4 56.4L164.6 58.5L165.6 63.2L166.3 64.1L167 64.6L169 66L173 68.2L175.4 69.6L179.1 71.7L182.5 73.6L186 76.6L186.6 77L189.6 78.7L192.9 80.3L195.3 80L198.8 82.5L200.2 83.5L200.8 83.8L203.4 84.8L207.4 86.9L212.5 89.9L215.9 91.7L216.8 91.9L217.7 91.9L218.7 91.5L219.8 91.2L221.6 91.6L223.6 92.3L224.8 92.8L226.2 93.6L227.4 94.3L228.2 94.7L231.1 95.3L231.7 95.7L232 96.1L232 96.5L230.4 98.8L230.2 101.8L230.1 104L230.3 105.8L229.5 105.8L227.6 105.5L223.8 104.7L220.5 103.2L218.3 102.3L218 102.4L217.1 103.1L216.4 103.9L215.9 105.5L215 107.3L211 107.4L207.6 107.5L205.4 108.2L203.3 109.2L202.7 110.4L202.3 111.8L201 115.3L199.9 118.4L199.3 120.4L198.5 121.8L196.1 123.6L193.3 124.8L191.8 125.4L191.1 126.1L191 126.8L190.5 127L189.4 126.8L188.2 127L185.6 127.7L182.7 128.5L179.3 129.4L177.3 129.4L176.5 129.6L176.2 130L176.5 130.8L176.9 131.5L177.2 132.2L176.4 132.9L175.9 134L175.4 135.9L174.2 136.5L172.3 137.5L170.1 138.7L169.6 138.9L168.3 139.3L167.1 139.2L166 139L164.8 139.3L163.5 140.3L163 140L162.7 139L162 138.4L160.1 137L158.4 136L157.7 135.9L156.1 136.2L154.2 136.4L152.6 136.1L151.4 135.7L149.5 134.4L148.8 133.6L148.3 133L147 133.2L146.6 132.5L146.5 131.8L146.9 130.9L146.8 129.2L146.1 128.1L145.2 127.5L145.3 127.1L145.7 126.3L146.2 125.6L146.2 124.1L145.6 122.5L145.3 120.3L145.5 118.1L144.7 117L138.2 117L132.4 117L132 116.8L129.8 114L127.9 111.9L126.2 110.6L122 109.1L120 108.5L118.3 107.3L116.9 106L116.6 104.3L116.3 103.7L115.9 103.2L115.4 103L114.9 103L110.1 101L108.2 100.5L106.4 100.9L105.6 101L104 100.4L102.1 101.2L101.4 101.2L100.3 101L99.4 100.8L97 98.9L95 98.1L93.5 97.6L90.7 97L87.6 96.6L86.1 96.3L85 95.9L84.7 95.6L84.7 94.9L84.7 94L84.3 93.4L83.5 92.6L82.5 92L80.7 92.1L78 92.1L75.8 91.5L74.2 91.4L72.2 91.5L70.5 91.5L69.4 91.9L68.7 92.4L68.3 93.9L67.9 94.2L67.2 94.3L66.3 94.2L64.4 94.2L61.1 93.9L56.9 93.9L53.8 94.7L51.3 95.8L48.9 97L46.1 99L45.3 99.9L43.7 103.3L43 103.8L42 104.3L41 104.3L39.2 104.8L36.6 105.7L34.9 106L30.5 105.8L30.3 104.7L29.5 100.7L29.1 96.6L29.1 94.7L29.6 90.9L29.5 89L29.3 87.3L29.5 85.6L29.9 83.7L30.1 81.7L29.8 80.4L28.9 79.3L27.5 78L27.3 77.2L27.2 76.3L25.8 76.2L24.5 75.3L23.6 74.8L21.4 74.2L20.3 74.2L19.2 74.6L18.5 75.4L18 74.1L18 72.8L19.8 69.9L20.8 70.8L22.2 71.1L23.9 71.2L25.6 70.9L25.2 70L24.5 69.4L23.5 69L23.2 67.7L23.3 66.4L23.7 65.2L23.2 64.7L22.4 64.4L20.6 64.4L18.2 64.1L15.8 63.9L15.2 65.4L16.6 67.3L15.5 66.4L14.4 65.1L12.9 62.9L12 60.3L11.8 57.4L12.6 55.1L13.6 52.9L14.3 50.1L15.1 47.3L16 48.5L17 49.6L18.3 50.7L19.1 50.9L21.3 51.3L22.7 51.2L24.3 50.6L25.7 50.8L27 51.9L28.1 53.2L29.8 53.5L33.3 52.6L34.9 52.3L36.4 52.7L37.1 52.8L37.8 52.8L37.2 51.6L36.9 50.5L37.8 49.9L40.5 50.6L42.3 50.1L42.7 49.9L43.1 49.6L43.3 48.7L43.3 47.7L43 46.8L42.5 46L41.3 44.8L36.4 42.1L34.8 41.1L33.4 39.7L32.5 37.7L31.8 35.7L31.2 34.1L29.5 30.6L28.8 30.2L28 30L25.9 29.9L23.9 30.2L20.6 30.8L18.6 30.6L17.8 30.9L15.5 32.4L14.5 33.7L13.1 36.6L14.2 37.6L14.2 38.2L13.3 42.5L13.8 44.6L13.6 44.7L13.2 44.2L12 42.1L9.8 39.5L8 35.5L11.2 32.9L14 31.1L16.2 30L16.9 29.7L20 28.8L24 28L26.9 27.4L30.7 26.8L32 26.7L33.8 26.7L35.3 27.2L36.2 27.6L39.4 29.2L42.6 30.8L45.4 32.6L46.2 33.3L46.6 34.2L47 35.1L49.3 37.8L50.3 39L51.6 40.6L52.8 41.4L53.9 42.4L54.6 43.2L55.4 43.6L56.4 43.8L58.5 43.5L61 43L62.5 42.8L63.2 42.8Z"/></svg>